<svg width="40" height="51" viewBox="0 0 40 51" fill="none" xmlns="http://www.w3.org/2000/svg">
<path fill-rule="evenodd" clip-rule="evenodd" d="M6.13724 35.4891C11.4456 42.9605 13.4075 45.5335 16.2285 48.5347C16.5527 48.8796 16.8091 49.1478 17.4051 49.6036C18.3516 50.217 18.7547 50.3923 19.9291 50.3923C21.0109 50.3923 21.6317 50.0353 22.2298 49.6913C22.2809 49.6618 22.3319 49.6325 22.3829 49.6036C22.5116 49.5043 22.6293 49.4148 22.738 49.3322C23.1474 49.021 23.4286 48.8073 23.6848 48.5347C26.5057 45.5335 28.097 43.4688 33.776 35.4891C38.8161 27.8194 39.1867 25.3281 39.7433 21.5861L39.7441 21.5807C39.7643 21.4452 39.7847 21.3081 39.8055 21.169C40.1853 18.6391 39.7705 12.2508 35.073 6.93641C29.2092 0.302357 22.4363 -0.0911659 19.9566 0.0125254C17.4769 -0.0911659 10.7041 0.302357 4.84019 6.93641C0.142752 12.2508 -0.272072 18.6391 0.107696 21.169C0.118561 21.2413 0.129611 21.3161 0.141021 21.3933L0.141041 21.3934L0.141062 21.3936C0.467469 23.602 1.08895 27.8069 6.13724 35.4891ZM16.9115 8.75729C18.1351 7.53305 19.0172 7.4389 19.8556 7.43225V7.43177L19.9291 7.43186L20.0027 7.43177V7.43225C20.8411 7.4389 21.7232 7.53305 22.9468 8.75729C24.2422 10.0534 27.51 12.8321 28.9821 14.0594C29.8652 14.7958 30.6013 15.5911 30.6013 18.1832V26.2836C30.6503 27.3146 29.9242 29.3765 26.6268 29.3765H23.8413C22.8082 29.2829 21.9953 28.4264 21.9704 27.3749V27.2757C21.9711 27.2463 21.9724 27.217 21.9744 27.1879H21.9704V25.1283C21.9704 23.9908 21.0483 23.0686 19.9107 23.0686C18.7732 23.0686 17.851 23.9908 17.851 25.1283V27.2349L17.8487 27.2361C17.85 27.2657 17.8506 27.2954 17.8506 27.3253C17.8506 28.3994 17.0284 29.2816 15.979 29.3765H13.2315C9.93415 29.3765 9.20795 27.3146 9.25702 26.2836V18.1832C9.25702 15.5911 9.99305 14.7958 10.8762 14.0594C12.3483 12.8321 15.6161 10.0534 16.9115 8.75729Z" fill="black"/>
</svg>
