<svg width="60" height="71" viewBox="0 0 60 71" fill="none" xmlns="http://www.w3.org/2000/svg">
<circle r="15.1045" transform="matrix(1 0 0 -1 30.0476 25.8716)" fill="white"/>
<g filter="url(#filter0_d_1774_1421)">
<path fill-rule="evenodd" clip-rule="evenodd" d="M16.1374 40.4891C21.4458 47.9605 23.4077 50.5335 26.2286 53.5347C26.5528 53.8796 26.8093 54.1478 27.4052 54.6035C28.3517 55.217 28.7549 55.3923 29.9292 55.3923C31.0111 55.3923 31.6319 55.0353 32.23 54.6913C32.2811 54.6618 32.3321 54.6325 32.3831 54.6035C32.5118 54.5043 32.6295 54.4148 32.7382 54.3322C33.1476 54.021 33.4288 53.8073 33.685 53.5347C36.5059 50.5335 38.0972 48.4688 43.7762 40.4891C48.8163 32.8194 49.1869 30.3281 49.7435 26.5861C49.7639 26.4488 49.7846 26.3099 49.8057 26.1689C50.1855 23.6391 49.7707 17.2508 45.0732 11.9364C39.2094 5.30235 32.4365 4.90883 29.9568 5.01252C27.4771 4.90883 20.7042 5.30235 14.8404 11.9364C10.1429 17.2508 9.72811 23.6391 10.1079 26.1689C10.1187 26.2412 10.1298 26.3158 10.1411 26.3929L10.1412 26.3934L10.1412 26.3936C10.4676 28.602 11.0891 32.8069 16.1374 40.4891ZM26.9118 13.7573C28.1353 12.533 29.0175 12.4389 29.8558 12.4322V12.4318L29.9294 12.4319L30.003 12.4318V12.4322C30.8413 12.4389 31.7235 12.533 32.9471 13.7573C34.2424 15.0533 37.5103 17.8321 38.9823 19.0594C39.8655 19.7958 40.6015 20.5911 40.6015 23.1832V31.2836C40.6506 32.3146 39.9244 34.3765 36.6271 34.3765H33.8426C32.8012 34.2826 31.9834 33.4137 31.9704 32.351V32.2994C31.9708 32.262 31.9723 32.2248 31.9747 32.1879H31.9704V30.1284C31.9704 28.9908 31.0482 28.0687 29.9107 28.0687C28.7731 28.0687 27.851 28.9908 27.851 30.1284V32.2351L27.849 32.2361C27.8503 32.2656 27.8509 32.2954 27.8509 32.3252C27.8509 33.3996 27.0282 34.2819 25.9784 34.3765H23.2317C19.9344 34.3765 19.2082 32.3146 19.2573 31.2836V23.1832C19.2573 20.5911 19.9933 19.7958 20.8765 19.0594C22.3485 17.8321 25.6164 15.0533 26.9118 13.7573Z" fill="#00B086"/>
</g>
<defs>
<filter id="filter0_d_1774_1421" x="0" y="0" width="59.9133" height="70.3923" filterUnits="userSpaceOnUse" color-interpolation-filters="sRGB">
<feFlood flood-opacity="0" result="BackgroundImageFix"/>
<feColorMatrix in="SourceAlpha" type="matrix" values="0 0 0 0 0 0 0 0 0 0 0 0 0 0 0 0 0 0 127 0" result="hardAlpha"/>
<feOffset dy="5"/>
<feGaussianBlur stdDeviation="5"/>
<feComposite in2="hardAlpha" operator="out"/>
<feColorMatrix type="matrix" values="0 0 0 0 0 0 0 0 0 0.690196 0 0 0 0 0.52549 0 0 0 0.4 0"/>
<feBlend mode="normal" in2="BackgroundImageFix" result="effect1_dropShadow_1774_1421"/>
<feBlend mode="normal" in="SourceGraphic" in2="effect1_dropShadow_1774_1421" result="shape"/>
</filter>
</defs>
</svg>
